<?xml version="1.0" standalone="no"?>
<!DOCTYPE svg PUBLIC "-//W3C//DTD SVG 20010904//EN"
 "http://www.w3.org/TR/2001/REC-SVG-20010904/DTD/svg10.dtd">
<svg version="1.0" xmlns="http://www.w3.org/2000/svg"
 width="853.000000pt" height="1132.000000pt" viewBox="0 0 853.000000 1132.000000"
 preserveAspectRatio="xMidYMid meet">

<g transform="translate(0.000000,1132.000000) scale(0.100000,-0.100000)"
fill="#0099CC" stroke="none">
<path d="M4260 10786 c-36 -8 -96 -26 -135 -40 -170 -65 -106 -5 -1686 -1585
-998 -997 -1480 -1486 -1509 -1529 -57 -87 -96 -172 -122 -272 l-23 -85 0
-1560 0 -1560 23 -85 c31 -117 88 -231 159 -320 96 -119 2918 -2931 2988
-2977 82 -55 126 -76 225 -109 79 -26 97 -28 240 -28 143 0 161 2 240 28 99
33 143 54 225 109 69 46 2892 2858 2986 2975 71 89 132 209 162 322 l22 85 0
1545 c0 1677 2 1610 -56 1762 -67 171 -21 123 -1557 1661 -785 786 -1462 1457
-1506 1492 -89 72 -189 124 -297 155 -95 28 -285 35 -379 16z m30 -1576 l0
-1319 -42 -11 c-133 -34 -210 -69 -303 -135 -33 -24 -465 -449 -960 -944 -495
-496 -905 -901 -910 -901 -6 0 -218 208 -471 463 -413 415 -464 469 -497 533
-88 171 -90 356 -5 534 29 60 136 169 1487 1523 801 802 1479 1473 1507 1493
49 34 156 83 182 84 9 0 12 -270 12 -1320z m390 1274 c73 -36 106 -67 1528
-1488 831 -829 1471 -1476 1493 -1509 119 -172 131 -399 32 -591 -33 -64 -84
-119 -497 -533 -253 -255 -465 -463 -470 -463 -6 0 -425 413 -931 919 -699
697 -935 927 -980 954 -81 48 -146 75 -230 97 l-70 18 -3 1322 -2 1322 27 -6
c16 -4 62 -23 103 -42z m-116 -2859 c33 -9 91 -32 130 -52 65 -34 142 -107
979 -942 499 -498 907 -910 907 -916 0 -20 -1803 -1811 -1857 -1844 -143 -89
-335 -109 -498 -52 -31 11 -80 35 -108 52 -53 33 -1857 1824 -1857 1844 0 6
404 414 898 907 593 592 916 908 954 932 92 58 187 85 298 86 55 0 121 -7 154
-15z m-2674 -1910 c0 -6 -191 -201 -425 -435 l-425 -425 0 860 0 860 425 -425
c234 -234 425 -429 425 -435z m5910 -2 l0 -858 -425 425 c-234 234 -425 429
-425 435 0 8 839 855 847 855 2 0 3 -386 3 -857z m-4815 -1084 c495 -495 927
-920 960 -944 94 -67 199 -113 318 -139 l27 -6 0 -1320 c0 -1265 -1 -1320 -18
-1320 -10 0 -56 18 -103 41 l-84 40 -1458 1457 c-802 801 -1474 1480 -1493
1508 -114 164 -124 399 -27 588 33 64 84 119 497 534 253 254 465 462 471 462
5 0 415 -405 910 -901z m4251 439 c412 -415 464 -470 497 -534 97 -189 88
-415 -25 -584 -22 -32 -650 -667 -1495 -1511 -1358 -1356 -1463 -1458 -1528
-1491 -38 -20 -85 -39 -102 -43 l-33 -7 0 1321 0 1321 28 6 c118 26 223 72
317 139 33 24 465 449 960 944 495 496 905 901 911 901 5 0 217 -208 470 -462z"/>
</g>
</svg>
